<svg width="22" height="22" viewBox="0 0 22 22" fill="none" xmlns="http://www.w3.org/2000/svg">
<path d="M3.59287 21.1171L4.04009 20.8934H4.04009L3.59287 21.1171ZM18.4092 21.1171L18.8564 21.3407V21.3407L18.4092 21.1171ZM1.0324 8.56673H20.9697V7.56673H1.0324V8.56673ZM20.7677 8.36475V9.00827H21.7677V8.36475H20.7677ZM18.167 20.7667H3.83505V21.7667H18.167V20.7667ZM1.23438 9.00827V8.36475H0.234375V9.00827H1.23438ZM4.04009 20.8934C2.19497 17.2032 1.23438 13.1341 1.23438 9.00827H0.234375C0.234375 13.2893 1.23111 17.5116 3.14566 21.3407L4.04009 20.8934ZM3.83505 20.7667C3.92188 20.7667 4.00125 20.8158 4.04009 20.8934L3.14566 21.3407C3.27622 21.6018 3.5431 21.7667 3.83505 21.7667V20.7667ZM17.962 20.8934C18.0008 20.8158 18.0802 20.7667 18.167 20.7667V21.7667C18.459 21.7667 18.7259 21.6018 18.8564 21.3407L17.962 20.8934ZM20.7677 9.00827C20.7677 13.1341 19.8071 17.2032 17.962 20.8934L18.8564 21.3407C20.771 17.5116 21.7677 13.2893 21.7677 9.00827H20.7677ZM20.9697 8.56673C20.8581 8.56673 20.7677 8.4763 20.7677 8.36475H21.7677C21.7677 7.92402 21.4104 7.56673 20.9697 7.56673V8.56673ZM1.0324 7.56673C0.59166 7.56673 0.234375 7.92402 0.234375 8.36475H1.23438C1.23438 8.4763 1.14395 8.56673 1.0324 8.56673V7.56673ZM5.56312 8.32398L9.96312 0.990646L9.10563 0.476151L4.70563 7.80948L5.56312 8.32398ZM12.039 0.990646L16.439 8.32398L17.2965 7.80948L12.8965 0.476151L12.039 0.990646Z" fill="#0E1D34"/>
</svg>
