<svg width="22" height="22" viewBox="0 0 22 22" fill="none" xmlns="http://www.w3.org/2000/svg">
<path d="M4.63437 19.0667V19.5667H5.63437V19.0667H4.63437ZM16.3677 19.0667V19.5667H17.3677V19.0667H16.3677ZM5.63437 19.0667V18.3332H4.63437V19.0667H5.63437ZM9.53437 14.4334H12.4677V13.4334H9.53437V14.4334ZM16.3677 18.3332V19.0667H17.3677V18.3332H16.3677ZM12.4677 14.4334C14.6216 14.4334 16.3677 16.1793 16.3677 18.3332H17.3677C17.3677 15.627 15.1739 13.4334 12.4677 13.4334V14.4334ZM5.63437 18.3332C5.63437 16.1793 7.38043 14.4334 9.53437 14.4334V13.4334C6.82821 13.4334 4.63437 15.627 4.63437 18.3332H5.63437ZM11.001 4.6334C9.10486 4.6334 7.56771 6.17055 7.56771 8.06673H8.56771C8.56771 6.72284 9.65715 5.6334 11.001 5.6334V4.6334ZM14.4344 8.06673C14.4344 6.17055 12.8972 4.6334 11.001 4.6334V5.6334C12.3449 5.6334 13.4344 6.72284 13.4344 8.06673H14.4344ZM11.001 11.5001C12.8972 11.5001 14.4344 9.96291 14.4344 8.06673H13.4344C13.4344 9.41062 12.3449 10.5001 11.001 10.5001V11.5001ZM11.001 10.5001C9.65715 10.5001 8.56771 9.41062 8.56771 8.06673H7.56771C7.56771 9.96291 9.10486 11.5001 11.001 11.5001V10.5001ZM11.001 20.7667C5.60706 20.7667 1.23438 16.394 1.23438 11.0001H0.234375C0.234375 16.9463 5.05478 21.7667 11.001 21.7667V20.7667ZM20.7677 11.0001C20.7677 16.394 16.395 20.7667 11.001 20.7667V21.7667C16.9473 21.7667 21.7677 16.9463 21.7677 11.0001H20.7677ZM11.001 1.2334C16.395 1.2334 20.7677 5.60608 20.7677 11.0001H21.7677C21.7677 5.0538 16.9473 0.233398 11.001 0.233398V1.2334ZM11.001 0.233398C5.05478 0.233398 0.234375 5.0538 0.234375 11.0001H1.23438C1.23438 5.60608 5.60706 1.2334 11.001 1.2334V0.233398Z" fill="#0E1D34"/>
</svg>
